<svg xmlns="http://www.w3.org/2000/svg" xmlns:xlink="http://www.w3.org/1999/xlink" width="384" height="256" viewBox="0 0 384 256">
    <defs>
        <path id="a" d="M0 0h384v256H0z"/>
        <path id="c" d="M0 255.972h485.876V.08H0z"/>
    </defs>
    <g fill="none" fill-rule="evenodd">
        <mask id="b" fill="#fff">
            <use xlink:href="#a"/>
        </mask>
        <use fill="#D8D8D8" xlink:href="#a"/>
        <g mask="url(#b)">
            <path fill="#62529F" d="M.084 256.492h383.5V.6H.083z"/>
            <path fill="#FEFEFE" d="M223.253 120.502l-31.317-45.018v24.388l14.368 20.63zM175.062 120.502l14.314-20.629V75.484l-31.316 45.018zM178.178 120.502h25.005l-12.525-17.985zM208.087 123.062l15.344 22.033v-22.033zM204.967 123.062h-28.565l-16.879 24.326h62.384zM173.285 123.062h-15.404v22.2z"/>
            <g transform="translate(-51 .52)">
                <path fill="#FEFEFE" d="M191.01 166.992c-.262.602-.56 1.335-.895 2.197-.335.863-.684 1.8-1.047 2.81h3.883c-.364-1.01-.716-1.953-1.055-2.827a68.212 68.212 0 0 0-.886-2.18zm3.483 9.522c-.16-.467-.325-.926-.496-1.38a39.9 39.9 0 0 1-.495-1.397h-4.986c-.16.477-.321.945-.486 1.405-.165.46-.328.917-.487 1.371h-2.231c.441-1.26.862-2.424 1.26-3.491.396-1.068.784-2.079 1.164-3.032.38-.954.758-1.862 1.132-2.726.374-.862.76-1.714 1.157-2.555h2.05c.397.84.783 1.693 1.157 2.555.375.864.753 1.772 1.133 2.726a159.96 159.96 0 0 1 2.444 6.524h-2.316z"/>
                <mask id="d" fill="#fff">
                    <use xlink:href="#c"/>
                </mask>
                <path fill="#FEFEFE" d="M199.142 176.513h2.146v-11.804h-2.146zM217.742 176.513a77.025 77.025 0 0 0-1.294-2.086c-.477-.744-.971-1.494-1.482-2.248a60.61 60.61 0 0 0-1.559-2.197 41.756 41.756 0 0 0-1.507-1.918v8.45h-2.112v-11.805h1.754c.454.477.942 1.042 1.465 1.695a83.13 83.13 0 0 1 1.575 2.035 76.075 76.075 0 0 1 1.534 2.121c.493.71.933 1.371 1.32 1.984v-7.835h2.129v11.804h-1.823zM223.243 176.513V164.71h7.58v1.823h-5.433v2.912h4.837v1.789h-4.837v3.457h5.842v1.823zM242.303 164.709v1.857h-3.628v9.947h-2.163v-9.947h-3.628v-1.857zM252.608 166.038c.182.613.375 1.252.579 1.916.204.665.417 1.329.639 1.993a189.841 189.841 0 0 0 1.303 3.773c.17-.613.335-1.28.494-2.002a174.392 174.392 0 0 0 1.38-7.01h2.213a107.367 107.367 0 0 1-1.326 6.16 73.407 73.407 0 0 1-1.633 5.646h-2.065a111.115 111.115 0 0 1-2.555-7.512c-.42 1.374-.847 2.68-1.279 3.917a185.17 185.17 0 0 1-1.296 3.595h-2.048a66.12 66.12 0 0 1-1.64-5.647c-.481-1.97-.92-4.023-1.317-6.158h2.3c.136.773.28 1.562.434 2.368a117.151 117.151 0 0 0 .98 4.633c.17.727.34 1.397.51 2.01.216-.579.435-1.19.656-1.831a108.551 108.551 0 0 0 1.278-3.943 96.62 96.62 0 0 0 .554-1.908h1.839zM263.39 170.603c0 .647.079 1.235.238 1.762.16.529.389.977.69 1.346.3.37.667.656 1.099.86.431.205.92.307 1.465.307a3.34 3.34 0 0 0 1.447-.307 3.128 3.128 0 0 0 1.099-.86c.3-.369.53-.817.69-1.346a6.102 6.102 0 0 0 .238-1.762c0-.647-.08-1.236-.238-1.763a3.865 3.865 0 0 0-.69-1.346 3.142 3.142 0 0 0-1.099-.86 3.34 3.34 0 0 0-1.447-.306c-.545 0-1.034.102-1.465.306a3.094 3.094 0 0 0-1.1.869c-.3.374-.53.823-.69 1.345a6.02 6.02 0 0 0-.237 1.755m9.215 0c0 1.01-.151 1.902-.452 2.674-.301.772-.71 1.416-1.226 1.934a5.068 5.068 0 0 1-1.814 1.166c-.693.26-1.431.392-2.214.392-.784 0-1.525-.131-2.223-.392a5.04 5.04 0 0 1-1.823-1.167c-.516-.517-.928-1.16-1.235-1.933-.307-.772-.46-1.663-.46-2.674s.153-1.9.46-2.666c.307-.767.724-1.411 1.252-1.933a5.183 5.183 0 0 1 1.831-1.176 6.18 6.18 0 0 1 2.198-.391c.772 0 1.504.13 2.197.391a5.021 5.021 0 0 1 1.814 1.176c.516.522.928 1.166 1.234 1.933.307.766.46 1.655.46 2.666M279.213 166.447c-.454 0-.874.016-1.26.05v3.816h.937c.522 0 .982-.028 1.379-.085.397-.056.73-.159.997-.306.267-.148.468-.347.604-.597.137-.25.205-.568.205-.954 0-.363-.068-.67-.205-.92a1.522 1.522 0 0 0-.587-.596 2.81 2.81 0 0 0-.911-.315 6.719 6.719 0 0 0-1.159-.093m-.153-1.857c1.703 0 3.006.313 3.909.937.903.625 1.354 1.578 1.354 2.861 0 1.601-.79 2.686-2.368 3.254.216.261.46.58.733.954a28.072 28.072 0 0 1 1.652 2.563c.261.46.494.911.698 1.354h-2.401a25.27 25.27 0 0 0-.698-1.235c-.25-.414-.503-.817-.758-1.21a29.331 29.331 0 0 0-1.457-2.034 5.87 5.87 0 0 1-.409.017h-1.363v4.462h-2.145V164.88c.522-.114 1.079-.19 1.67-.23.589-.04 1.117-.06 1.583-.06M294.611 176.513a22.827 22.827 0 0 0-3.56-4.208c-.454-.419-.902-.782-1.345-1.09v5.298h-2.147V164.71h2.147v4.872a89.84 89.84 0 0 0 3.543-3.765c.363-.408.692-.778.987-1.107h2.572a94.134 94.134 0 0 1-2.487 2.751c-.443.472-.888.94-1.336 1.405-.45.466-.89.91-1.321 1.329.477.363.963.787 1.457 1.269.494.482.979 1 1.456 1.55a27.143 27.143 0 0 1 2.571 3.5h-2.537z" mask="url(#d)"/>
            </g>
        </g>
    </g>
</svg>
