<svg xmlns="http://www.w3.org/2000/svg" xmlns:xlink="http://www.w3.org/1999/xlink" width="48" height="44" viewBox="0 0 48 44">
    <defs>
        <path id="a" d="M0 43.646h47.656V.266H0z"/>
    </defs>
    <g fill="none" fill-rule="evenodd">
        <path fill="#62529F" d="M24.555.4v10.392l6.122 8.791H37.9zM23.464.4L10.12 19.583h7.245l6.099-8.79zM18.692 19.583h10.656L24.01 11.92zM31.437 20.674l6.539 9.389v-9.389zM30.108 20.674H17.936L10.743 31.04h26.583zM16.608 20.674h-6.564v9.46z"/>
        <g transform="translate(0 .135)">
            <path fill="#62529F" d="M2.428 39.48c-.111.257-.238.569-.381.936-.143.368-.292.767-.446 1.198h1.654c-.154-.431-.304-.833-.45-1.205-.145-.372-.27-.682-.377-.929zm1.484 4.057a22.538 22.538 0 0 0-.21-.588 16.366 16.366 0 0 1-.212-.595H1.366c-.068.203-.137.403-.208.599l-.207.584h-.95c.187-.537.366-1.033.535-1.488.17-.454.335-.885.497-1.292a37.443 37.443 0 0 1 .975-2.25h.874a37.45 37.45 0 0 1 .976 2.25 74.805 74.805 0 0 1 1.041 2.78h-.987z"/>
            <mask id="b" fill="#fff">
                <use xlink:href="#a"/>
            </mask>
            <path fill="#62529F" d="M5.893 43.537h.915v-5.03h-.915zM13.82 43.537a33.317 33.317 0 0 0-.552-.89 46.755 46.755 0 0 0-.632-.957 25.486 25.486 0 0 0-.664-.936c-.225-.303-.44-.575-.642-.817v3.6h-.9v-5.03h.747c.194.203.402.444.625.722a35.37 35.37 0 0 1 1.324 1.772c.21.302.398.584.563.845v-3.339h.907v5.03h-.777zM16.164 43.537v-5.03h3.23v.777h-2.316v1.241h2.062v.762h-2.062v1.474h2.49v.776zM24.285 38.507v.792H22.74v4.238h-.922V39.3h-1.545v-.792zM28.676 39.073c.078.262.16.534.247.817.087.283.178.566.272.85a80.477 80.477 0 0 0 .556 1.607c.072-.262.142-.546.21-.853a68.315 68.315 0 0 0 .588-2.987h.944c-.17.91-.358 1.785-.566 2.624-.208.84-.44 1.642-.696 2.406h-.88a47.269 47.269 0 0 1-1.088-3.2c-.18.585-.361 1.141-.546 1.669a74.06 74.06 0 0 1-.552 1.531h-.872a28.148 28.148 0 0 1-.7-2.406 48.099 48.099 0 0 1-.56-2.624h.98c.058.33.12.666.185 1.009a49.178 49.178 0 0 0 .417 1.974c.072.31.145.595.218.857.092-.247.185-.507.28-.78a48.43 48.43 0 0 0 .544-1.68c.084-.281.163-.552.235-.814h.784zM33.27 41.019c0 .275.034.526.102.75.068.226.166.417.294.574.128.158.285.28.468.367.184.087.392.13.625.13.227 0 .433-.043.616-.13.184-.088.34-.21.469-.367.128-.157.226-.348.294-.573.067-.225.101-.476.101-.751 0-.276-.034-.526-.101-.751a1.651 1.651 0 0 0-.294-.574 1.34 1.34 0 0 0-.469-.367 1.425 1.425 0 0 0-.616-.13c-.233 0-.44.043-.625.13-.183.088-.34.211-.468.37-.128.16-.226.351-.294.574a2.552 2.552 0 0 0-.101.748m3.926 0c0 .43-.064.81-.192 1.14a2.368 2.368 0 0 1-.523.823c-.22.22-.478.386-.773.497-.295.111-.61.167-.943.167-.334 0-.65-.056-.947-.167a2.148 2.148 0 0 1-.777-.497 2.399 2.399 0 0 1-.526-.824c-.13-.329-.196-.709-.196-1.14 0-.43.065-.809.196-1.135.13-.327.308-.601.533-.824a2.2 2.2 0 0 1 .78-.5c.295-.112.608-.168.937-.168.329 0 .641.056.936.167.295.111.553.278.773.501.22.223.396.497.526.824.131.326.196.705.196 1.136M40.013 39.248c-.193 0-.372.007-.537.021v1.626h.4c.222 0 .418-.012.587-.036.17-.024.311-.068.425-.13a.636.636 0 0 0 .258-.255.843.843 0 0 0 .087-.406.81.81 0 0 0-.087-.392.65.65 0 0 0-.25-.254 1.181 1.181 0 0 0-.39-.134 2.806 2.806 0 0 0-.493-.04m-.065-.792c.726 0 1.281.133 1.666.4.385.266.577.672.577 1.219 0 .682-.337 1.144-1.01 1.386.093.112.197.247.313.407a12.012 12.012 0 0 1 .704 1.092c.111.196.21.388.298.577h-1.024c-.092-.174-.19-.35-.297-.526a18.13 18.13 0 0 0-.323-.515 12.267 12.267 0 0 0-.62-.868 2.292 2.292 0 0 1-.175.007h-.581v1.902h-.914V38.58c.222-.049.46-.081.711-.098.251-.017.476-.026.675-.026M46.575 43.537a9.809 9.809 0 0 0-1.517-1.793 5.243 5.243 0 0 0-.574-.464v2.257h-.914v-5.03h.914v2.076a35.408 35.408 0 0 0 1.02-1.063c.172-.186.335-.367.49-.54l.421-.473h1.096a38.136 38.136 0 0 1-1.06 1.173c-.188.2-.378.4-.57.598-.19.199-.378.387-.562.566.203.155.41.335.62.54a11.547 11.547 0 0 1 1.717 2.152l-1.081.001z" mask="url(#b)"/>
        </g>
    </g>
</svg>
