<svg xmlns="http://www.w3.org/2000/svg" xmlns:xlink="http://www.w3.org/1999/xlink" width="76" height="69" viewBox="0 0 76 69">
    <defs>
        <path id="a" d="M0 68.721h75.272V.203H0z"/>
    </defs>
    <g fill="none" fill-rule="evenodd">
        <path fill="#000" d="M38.784.485v16.412l9.67 13.887h11.409zM37.062.485L15.984 30.784h11.443l9.635-13.885zM29.524 30.783h16.83l-8.43-12.106zM49.655 32.506L59.98 47.335V32.506zM47.555 32.506H28.33L16.968 48.878h41.989zM26.231 32.506H15.864v14.942z"/>
        <g transform="translate(0 .282)">
            <path fill="#000" d="M3.835 62.14c-.176.407-.376.899-.601 1.48-.226.58-.462 1.211-.705 1.892h2.614a82.727 82.727 0 0 0-.712-1.904 43.72 43.72 0 0 0-.596-1.468zm2.344 6.408a31.17 31.17 0 0 0-.333-.927 25.378 25.378 0 0 1-.333-.941H2.156c-.107.322-.216.637-.326.945-.112.31-.221.618-.328.923H0c.298-.848.58-1.63.849-2.349.266-.718.528-1.399.784-2.04a57 57 0 0 1 1.54-3.553h1.378a57 57 0 0 1 .78 1.718c.252.582.507 1.193.762 1.834a114.202 114.202 0 0 1 1.646 4.39h-1.56z"/>
            <mask id="b" fill="#fff">
                <use xlink:href="#a"/>
            </mask>
            <path fill="#000" d="M9.31 68.549h1.444v-7.945H9.31zM21.828 68.549a65.15 65.15 0 0 0-1.868-2.916 40.448 40.448 0 0 0-1.05-1.48 29.735 29.735 0 0 0-1.014-1.29v5.686h-1.422v-7.945h1.18c.307.322.635.702.986 1.142.351.439.705.896 1.061 1.37.356.473.699.949 1.032 1.426.333.478.629.923.888 1.336v-5.274h1.433v7.945h-1.226zM25.53 68.549v-7.945h5.102v1.227h-3.657v1.96h3.255v1.205h-3.255v2.326h3.931v1.227zM38.358 60.605v1.249h-2.442v6.695H34.46v-6.695h-2.442v-1.25zM45.294 61.499c.122.412.252.843.39 1.29a75.266 75.266 0 0 0 .877 2.66c.15.432.29.838.429 1.22.115-.413.226-.862.333-1.347a98.243 98.243 0 0 0 .637-3.113c.102-.541.2-1.077.29-1.604h1.492a72.66 72.66 0 0 1-.893 4.143 48.87 48.87 0 0 1-1.099 3.8h-1.39a74.78 74.78 0 0 1-1.72-5.054c-.284.924-.57 1.803-.86 2.637-.291.832-.582 1.64-.873 2.417H41.53a44.323 44.323 0 0 1-1.104-3.8 75.686 75.686 0 0 1-.886-4.143h1.548a86.757 86.757 0 0 0 .613 3.193c.11.523.224 1.03.338 1.519.115.489.229.939.344 1.352a65.959 65.959 0 0 0 .882-2.55c.145-.448.285-.893.42-1.335.133-.444.256-.873.372-1.285h1.238zM52.55 64.571c0 .436.054.832.161 1.186.107.356.262.658.465.907.201.247.448.442.739.578.29.138.62.207.986.207.36 0 .684-.069.973-.207.291-.136.538-.331.74-.578.203-.249.359-.551.466-.907.106-.354.16-.75.16-1.186 0-.435-.054-.832-.16-1.186a2.601 2.601 0 0 0-.466-.906 2.094 2.094 0 0 0-.74-.579 2.231 2.231 0 0 0-.973-.206 2.27 2.27 0 0 0-.986.206c-.29.137-.538.333-.74.585a2.664 2.664 0 0 0-.464.905c-.107.353-.16.746-.16 1.181m6.2 0c0 .68-.1 1.28-.303 1.8-.202.52-.478.954-.824 1.302-.35.347-.755.609-1.222.784a4.197 4.197 0 0 1-1.49.264 4.24 4.24 0 0 1-1.496-.264 3.393 3.393 0 0 1-1.226-.784 3.786 3.786 0 0 1-.83-1.302c-.209-.52-.31-1.12-.31-1.8 0-.679.101-1.278.31-1.793.206-.517.485-.95.841-1.302a3.461 3.461 0 0 1 1.232-.791c.467-.176.96-.263 1.48-.263.518 0 1.012.087 1.478.263.466.175.873.439 1.222.791.348.353.624.785.83 1.302.206.515.309 1.114.309 1.793M63.2 61.774c-.305 0-.588.011-.848.034v2.569h.63c.353 0 .662-.02.928-.059.268-.037.493-.107.673-.206.179-.1.314-.232.406-.401.091-.168.138-.38.138-.642 0-.244-.047-.45-.138-.618a1.027 1.027 0 0 0-.396-.402c-.173-.1-.377-.171-.613-.212a4.458 4.458 0 0 0-.78-.063m-.102-1.25c1.145 0 2.023.21 2.63.63.608.422.912 1.063.912 1.926 0 1.079-.531 1.808-1.594 2.19.146.176.31.39.492.642.184.254.37.526.562.82.192.295.376.595.551.905.176.31.333.615.47.912h-1.617a17.43 17.43 0 0 0-.47-.83c-.168-.28-.337-.551-.51-.814a18.99 18.99 0 0 0-.98-1.372c-.106.009-.2.012-.275.012H62.352v3.004h-1.444v-7.83c.35-.076.726-.128 1.123-.155.398-.026.753-.04 1.067-.04M73.564 68.549a15.697 15.697 0 0 0-1.508-1.937c-.286-.313-.583-.61-.888-.895a8.333 8.333 0 0 0-.905-.733v3.565h-1.445v-7.945h1.445v3.279a60.047 60.047 0 0 0 2.385-2.533c.243-.276.464-.523.664-.746h1.73a60.783 60.783 0 0 1-1.673 1.852c-.299.317-.598.632-.9.946-.302.313-.598.61-.889.893.322.246.649.53.98.855a17.912 17.912 0 0 1 1.904 2.201c.294.402.564.802.808 1.198h-1.708z" mask="url(#b)"/>
        </g>
    </g>
</svg>
